<mxfile host="app.diagrams.net" agent="Mozilla/5.0 (Windows NT 10.0; Win64; x64) AppleWebKit/537.36 (KHTML, like Gecko) Chrome/134.0.0.0 Safari/537.36 OPR/119.0.0.0" version="27.1.6">
  <diagram name="PÃ¡gina-1" id="WBaf-g4u-6Uomg3EtTSc">
    <mxGraphModel dx="4831" dy="2160" grid="1" gridSize="10" guides="1" tooltips="1" connect="1" arrows="1" fold="1" page="1" pageScale="1" pageWidth="827" pageHeight="1169" math="0" shadow="0">
      <root>
        <mxCell id="0" />
        <mxCell id="1" parent="0" />
        <mxCell id="4DiA1eITnPW3lnMo9uUR-27" value="" style="endArrow=none;html=1;rounded=0;" parent="1" edge="1">
          <mxGeometry width="50" height="50" relative="1" as="geometry">
            <mxPoint x="1079.29" y="1960" as="sourcePoint" />
            <mxPoint x="1079.29" y="70" as="targetPoint" />
          </mxGeometry>
        </mxCell>
        <mxCell id="4DiA1eITnPW3lnMo9uUR-21" value="" style="endArrow=none;html=1;rounded=0;" parent="1" edge="1">
          <mxGeometry width="50" height="50" relative="1" as="geometry">
            <mxPoint x="760" y="1958" as="sourcePoint" />
            <mxPoint x="760" y="68" as="targetPoint" />
          </mxGeometry>
        </mxCell>
        <mxCell id="4DiA1eITnPW3lnMo9uUR-1" value="" style="endArrow=none;html=1;rounded=0;" parent="1" edge="1">
          <mxGeometry width="50" height="50" relative="1" as="geometry">
            <mxPoint x="120" y="1960" as="sourcePoint" />
            <mxPoint x="120" y="70" as="targetPoint" />
          </mxGeometry>
        </mxCell>
        <mxCell id="4DiA1eITnPW3lnMo9uUR-2" value="Semana" style="text;html=1;align=center;verticalAlign=middle;resizable=0;points=[];autosize=1;strokeColor=none;fillColor=none;" parent="1" vertex="1">
          <mxGeometry x="-10" y="38" width="70" height="30" as="geometry" />
        </mxCell>
        <mxCell id="4DiA1eITnPW3lnMo9uUR-3" value="0" style="text;html=1;align=center;verticalAlign=middle;resizable=0;points=[];autosize=1;strokeColor=none;fillColor=none;" parent="1" vertex="1">
          <mxGeometry x="95" y="38" width="30" height="30" as="geometry" />
        </mxCell>
        <mxCell id="4DiA1eITnPW3lnMo9uUR-4" value="" style="rhombus;whiteSpace=wrap;html=1;" parent="1" vertex="1">
          <mxGeometry x="80" y="100" width="80" height="80" as="geometry" />
        </mxCell>
        <mxCell id="4DiA1eITnPW3lnMo9uUR-5" value="Inicio" style="text;html=1;align=center;verticalAlign=middle;resizable=0;points=[];autosize=1;strokeColor=none;fillColor=none;" parent="1" vertex="1">
          <mxGeometry x="165" y="128" width="50" height="30" as="geometry" />
        </mxCell>
        <mxCell id="4DiA1eITnPW3lnMo9uUR-6" value="T1" style="text;html=1;align=center;verticalAlign=middle;resizable=0;points=[];autosize=1;strokeColor=none;fillColor=none;" parent="1" vertex="1">
          <mxGeometry x="30" y="218" width="40" height="30" as="geometry" />
        </mxCell>
        <mxCell id="4DiA1eITnPW3lnMo9uUR-7" value="T4" style="text;html=1;align=center;verticalAlign=middle;resizable=0;points=[];autosize=1;strokeColor=none;fillColor=none;" parent="1" vertex="1">
          <mxGeometry x="380" y="335" width="40" height="30" as="geometry" />
        </mxCell>
        <mxCell id="4DiA1eITnPW3lnMo9uUR-9" value="T5" style="text;html=1;align=center;verticalAlign=middle;resizable=0;points=[];autosize=1;strokeColor=none;fillColor=none;" parent="1" vertex="1">
          <mxGeometry x="860" y="425" width="40" height="30" as="geometry" />
        </mxCell>
        <mxCell id="4DiA1eITnPW3lnMo9uUR-10" value="" style="endArrow=none;html=1;rounded=0;" parent="1" edge="1">
          <mxGeometry width="50" height="50" relative="1" as="geometry">
            <mxPoint x="280" y="1970" as="sourcePoint" />
            <mxPoint x="280" y="80" as="targetPoint" />
          </mxGeometry>
        </mxCell>
        <mxCell id="4DiA1eITnPW3lnMo9uUR-11" value="" style="endArrow=none;html=1;rounded=0;" parent="1" edge="1">
          <mxGeometry width="50" height="50" relative="1" as="geometry">
            <mxPoint x="440" y="1958" as="sourcePoint" />
            <mxPoint x="440" y="68" as="targetPoint" />
          </mxGeometry>
        </mxCell>
        <mxCell id="4DiA1eITnPW3lnMo9uUR-13" value="" style="rounded=0;whiteSpace=wrap;html=1;" parent="1" vertex="1">
          <mxGeometry x="120" y="210" width="320" height="60" as="geometry" />
        </mxCell>
        <mxCell id="4DiA1eITnPW3lnMo9uUR-14" value="" style="rounded=0;whiteSpace=wrap;html=1;" parent="1" vertex="1">
          <mxGeometry x="920" y="410" width="320" height="60" as="geometry" />
        </mxCell>
        <mxCell id="4DiA1eITnPW3lnMo9uUR-15" value="" style="rounded=0;whiteSpace=wrap;html=1;" parent="1" vertex="1">
          <mxGeometry x="440" y="320" width="480" height="60" as="geometry" />
        </mxCell>
        <mxCell id="4DiA1eITnPW3lnMo9uUR-16" value="" style="endArrow=none;html=1;rounded=0;" parent="1" edge="1">
          <mxGeometry width="50" height="50" relative="1" as="geometry">
            <mxPoint x="600" y="1958" as="sourcePoint" />
            <mxPoint x="600" y="68" as="targetPoint" />
          </mxGeometry>
        </mxCell>
        <mxCell id="4DiA1eITnPW3lnMo9uUR-18" value="T1" style="text;html=1;align=center;verticalAlign=middle;resizable=0;points=[];autosize=1;strokeColor=none;fillColor=none;" parent="1" vertex="1">
          <mxGeometry x="1310" y="569" width="40" height="30" as="geometry" />
        </mxCell>
        <mxCell id="4DiA1eITnPW3lnMo9uUR-20" value="T2" style="text;html=1;align=center;verticalAlign=middle;resizable=0;points=[];autosize=1;strokeColor=none;fillColor=none;" parent="1" vertex="1">
          <mxGeometry x="1180" y="700" width="40" height="30" as="geometry" />
        </mxCell>
        <mxCell id="4DiA1eITnPW3lnMo9uUR-22" value="" style="endArrow=none;html=1;rounded=0;" parent="1" edge="1">
          <mxGeometry width="50" height="50" relative="1" as="geometry">
            <mxPoint x="920" y="1970" as="sourcePoint" />
            <mxPoint x="920" y="80" as="targetPoint" />
          </mxGeometry>
        </mxCell>
        <mxCell id="4DiA1eITnPW3lnMo9uUR-24" value="T1&amp;amp;T2" style="text;html=1;align=center;verticalAlign=middle;resizable=0;points=[];autosize=1;strokeColor=none;fillColor=none;" parent="1" vertex="1">
          <mxGeometry x="1780" y="805" width="60" height="30" as="geometry" />
        </mxCell>
        <mxCell id="4DiA1eITnPW3lnMo9uUR-28" value="" style="endArrow=none;html=1;rounded=0;" parent="1" edge="1" source="huYz3TOGwqJcKyMOCopR-5">
          <mxGeometry width="50" height="50" relative="1" as="geometry">
            <mxPoint x="1240" y="1970" as="sourcePoint" />
            <mxPoint x="1240" y="80" as="targetPoint" />
          </mxGeometry>
        </mxCell>
        <mxCell id="4DiA1eITnPW3lnMo9uUR-30" value="T3&amp;amp;T4" style="text;html=1;align=center;verticalAlign=middle;resizable=0;points=[];autosize=1;strokeColor=none;fillColor=none;" parent="1" vertex="1">
          <mxGeometry x="2080" y="995" width="60" height="30" as="geometry" />
        </mxCell>
        <mxCell id="4DiA1eITnPW3lnMo9uUR-31" value="T6" style="text;html=1;align=center;verticalAlign=middle;resizable=0;points=[];autosize=1;strokeColor=none;fillColor=none;" parent="1" vertex="1">
          <mxGeometry x="1970" y="1110" width="40" height="30" as="geometry" />
        </mxCell>
        <mxCell id="4DiA1eITnPW3lnMo9uUR-32" value="T13" style="text;html=1;align=center;verticalAlign=middle;resizable=0;points=[];autosize=1;strokeColor=none;fillColor=none;" parent="1" vertex="1">
          <mxGeometry x="2450" y="1270" width="40" height="30" as="geometry" />
        </mxCell>
        <mxCell id="huYz3TOGwqJcKyMOCopR-1" value="" style="endArrow=none;html=1;rounded=0;" edge="1" parent="1">
          <mxGeometry width="50" height="50" relative="1" as="geometry">
            <mxPoint x="1390" y="1970" as="sourcePoint" />
            <mxPoint x="1400" y="90" as="targetPoint" />
          </mxGeometry>
        </mxCell>
        <mxCell id="huYz3TOGwqJcKyMOCopR-2" value="" style="endArrow=none;html=1;rounded=0;" edge="1" parent="1">
          <mxGeometry width="50" height="50" relative="1" as="geometry">
            <mxPoint x="1560" y="1970" as="sourcePoint" />
            <mxPoint x="1560" y="90" as="targetPoint" />
          </mxGeometry>
        </mxCell>
        <mxCell id="huYz3TOGwqJcKyMOCopR-6" value="" style="endArrow=none;html=1;rounded=0;" edge="1" parent="1" target="huYz3TOGwqJcKyMOCopR-5">
          <mxGeometry width="50" height="50" relative="1" as="geometry">
            <mxPoint x="1240" y="1970" as="sourcePoint" />
            <mxPoint x="1240" y="80" as="targetPoint" />
          </mxGeometry>
        </mxCell>
        <mxCell id="huYz3TOGwqJcKyMOCopR-5" value="" style="rhombus;whiteSpace=wrap;html=1;" vertex="1" parent="1">
          <mxGeometry x="1210" y="540" width="80" height="80" as="geometry" />
        </mxCell>
        <mxCell id="4DiA1eITnPW3lnMo9uUR-19" value="" style="rounded=0;whiteSpace=wrap;html=1;" parent="1" vertex="1">
          <mxGeometry x="1240" y="680" width="480" height="60" as="geometry" />
        </mxCell>
        <mxCell id="huYz3TOGwqJcKyMOCopR-7" value="" style="endArrow=none;html=1;rounded=0;" edge="1" parent="1">
          <mxGeometry width="50" height="50" relative="1" as="geometry">
            <mxPoint x="1720" y="1948" as="sourcePoint" />
            <mxPoint x="1720" y="68" as="targetPoint" />
          </mxGeometry>
        </mxCell>
        <mxCell id="huYz3TOGwqJcKyMOCopR-8" value="" style="rhombus;whiteSpace=wrap;html=1;" vertex="1" parent="1">
          <mxGeometry x="1680" y="780" width="80" height="80" as="geometry" />
        </mxCell>
        <mxCell id="huYz3TOGwqJcKyMOCopR-9" value="T3" style="text;html=1;align=center;verticalAlign=middle;resizable=0;points=[];autosize=1;strokeColor=none;fillColor=none;" vertex="1" parent="1">
          <mxGeometry x="1650" y="888" width="40" height="30" as="geometry" />
        </mxCell>
        <mxCell id="huYz3TOGwqJcKyMOCopR-10" value="" style="endArrow=none;html=1;rounded=0;" edge="1" parent="1">
          <mxGeometry width="50" height="50" relative="1" as="geometry">
            <mxPoint x="1878.33" y="1948" as="sourcePoint" />
            <mxPoint x="1878.33" y="68" as="targetPoint" />
          </mxGeometry>
        </mxCell>
        <mxCell id="huYz3TOGwqJcKyMOCopR-11" value="" style="endArrow=none;html=1;rounded=0;" edge="1" parent="1">
          <mxGeometry width="50" height="50" relative="1" as="geometry">
            <mxPoint x="2040" y="1948" as="sourcePoint" />
            <mxPoint x="2040" y="68" as="targetPoint" />
          </mxGeometry>
        </mxCell>
        <mxCell id="4DiA1eITnPW3lnMo9uUR-25" value="" style="rounded=0;whiteSpace=wrap;html=1;" parent="1" vertex="1">
          <mxGeometry x="1720" y="890" width="320" height="60" as="geometry" />
        </mxCell>
        <mxCell id="4DiA1eITnPW3lnMo9uUR-29" value="" style="rhombus;whiteSpace=wrap;html=1;" parent="1" vertex="1">
          <mxGeometry x="1990" y="970" width="80" height="80" as="geometry" />
        </mxCell>
        <mxCell id="huYz3TOGwqJcKyMOCopR-13" value="" style="endArrow=none;html=1;rounded=0;" edge="1" parent="1">
          <mxGeometry width="50" height="50" relative="1" as="geometry">
            <mxPoint x="2200" y="1950" as="sourcePoint" />
            <mxPoint x="2200" y="70" as="targetPoint" />
          </mxGeometry>
        </mxCell>
        <mxCell id="huYz3TOGwqJcKyMOCopR-14" value="" style="endArrow=none;html=1;rounded=0;" edge="1" parent="1">
          <mxGeometry width="50" height="50" relative="1" as="geometry">
            <mxPoint x="2360" y="1950" as="sourcePoint" />
            <mxPoint x="2360" y="70" as="targetPoint" />
          </mxGeometry>
        </mxCell>
        <mxCell id="huYz3TOGwqJcKyMOCopR-15" value="" style="endArrow=none;html=1;rounded=0;" edge="1" parent="1">
          <mxGeometry width="50" height="50" relative="1" as="geometry">
            <mxPoint x="2520" y="1960" as="sourcePoint" />
            <mxPoint x="2520" y="80" as="targetPoint" />
          </mxGeometry>
        </mxCell>
        <mxCell id="huYz3TOGwqJcKyMOCopR-12" value="" style="rounded=0;whiteSpace=wrap;html=1;" vertex="1" parent="1">
          <mxGeometry x="2040" y="1095" width="480" height="60" as="geometry" />
        </mxCell>
        <mxCell id="huYz3TOGwqJcKyMOCopR-16" value="" style="endArrow=none;html=1;rounded=0;" edge="1" parent="1">
          <mxGeometry width="50" height="50" relative="1" as="geometry">
            <mxPoint x="2680" y="1960" as="sourcePoint" />
            <mxPoint x="2680" y="80" as="targetPoint" />
          </mxGeometry>
        </mxCell>
        <mxCell id="huYz3TOGwqJcKyMOCopR-17" value="" style="endArrow=none;html=1;rounded=0;" edge="1" parent="1">
          <mxGeometry width="50" height="50" relative="1" as="geometry">
            <mxPoint x="2840" y="1970" as="sourcePoint" />
            <mxPoint x="2840" y="90" as="targetPoint" />
          </mxGeometry>
        </mxCell>
        <mxCell id="huYz3TOGwqJcKyMOCopR-18" value="" style="endArrow=none;html=1;rounded=0;" edge="1" parent="1">
          <mxGeometry width="50" height="50" relative="1" as="geometry">
            <mxPoint x="3000" y="1970" as="sourcePoint" />
            <mxPoint x="3000" y="90" as="targetPoint" />
          </mxGeometry>
        </mxCell>
        <mxCell id="huYz3TOGwqJcKyMOCopR-19" value="" style="endArrow=none;html=1;rounded=0;" edge="1" parent="1">
          <mxGeometry width="50" height="50" relative="1" as="geometry">
            <mxPoint x="3170" y="1960" as="sourcePoint" />
            <mxPoint x="3170" y="80" as="targetPoint" />
          </mxGeometry>
        </mxCell>
        <mxCell id="huYz3TOGwqJcKyMOCopR-20" value="" style="endArrow=none;html=1;rounded=0;" edge="1" parent="1">
          <mxGeometry width="50" height="50" relative="1" as="geometry">
            <mxPoint x="3330" y="1970" as="sourcePoint" />
            <mxPoint x="3330" y="90" as="targetPoint" />
          </mxGeometry>
        </mxCell>
        <mxCell id="huYz3TOGwqJcKyMOCopR-21" value="" style="endArrow=none;html=1;rounded=0;" edge="1" parent="1">
          <mxGeometry width="50" height="50" relative="1" as="geometry">
            <mxPoint x="3490" y="1970" as="sourcePoint" />
            <mxPoint x="3490" y="90" as="targetPoint" />
          </mxGeometry>
        </mxCell>
        <mxCell id="huYz3TOGwqJcKyMOCopR-22" value="" style="endArrow=none;html=1;rounded=0;" edge="1" parent="1">
          <mxGeometry width="50" height="50" relative="1" as="geometry">
            <mxPoint x="3640" y="1960" as="sourcePoint" />
            <mxPoint x="3640" y="80" as="targetPoint" />
          </mxGeometry>
        </mxCell>
        <mxCell id="huYz3TOGwqJcKyMOCopR-23" value="" style="endArrow=none;html=1;rounded=0;" edge="1" parent="1">
          <mxGeometry width="50" height="50" relative="1" as="geometry">
            <mxPoint x="3800" y="1970" as="sourcePoint" />
            <mxPoint x="3800" y="90" as="targetPoint" />
          </mxGeometry>
        </mxCell>
        <mxCell id="huYz3TOGwqJcKyMOCopR-24" value="" style="endArrow=none;html=1;rounded=0;" edge="1" parent="1">
          <mxGeometry width="50" height="50" relative="1" as="geometry">
            <mxPoint x="3960" y="1970" as="sourcePoint" />
            <mxPoint x="3960" y="90" as="targetPoint" />
          </mxGeometry>
        </mxCell>
        <mxCell id="huYz3TOGwqJcKyMOCopR-26" value="" style="endArrow=none;html=1;rounded=0;" edge="1" parent="1">
          <mxGeometry width="50" height="50" relative="1" as="geometry">
            <mxPoint x="4130" y="1960" as="sourcePoint" />
            <mxPoint x="4130" y="80" as="targetPoint" />
          </mxGeometry>
        </mxCell>
        <mxCell id="huYz3TOGwqJcKyMOCopR-27" value="" style="endArrow=none;html=1;rounded=0;" edge="1" parent="1" source="huYz3TOGwqJcKyMOCopR-47">
          <mxGeometry width="50" height="50" relative="1" as="geometry">
            <mxPoint x="4290" y="1970" as="sourcePoint" />
            <mxPoint x="4290" y="90" as="targetPoint" />
          </mxGeometry>
        </mxCell>
        <mxCell id="huYz3TOGwqJcKyMOCopR-28" value="" style="endArrow=none;html=1;rounded=0;" edge="1" parent="1">
          <mxGeometry width="50" height="50" relative="1" as="geometry">
            <mxPoint x="4450" y="1970" as="sourcePoint" />
            <mxPoint x="4450" y="90" as="targetPoint" />
          </mxGeometry>
        </mxCell>
        <mxCell id="huYz3TOGwqJcKyMOCopR-29" value="" style="endArrow=none;html=1;rounded=0;" edge="1" parent="1">
          <mxGeometry width="50" height="50" relative="1" as="geometry">
            <mxPoint x="4610" y="1960" as="sourcePoint" />
            <mxPoint x="4610" y="80" as="targetPoint" />
          </mxGeometry>
        </mxCell>
        <mxCell id="huYz3TOGwqJcKyMOCopR-30" value="" style="endArrow=none;html=1;rounded=0;" edge="1" parent="1">
          <mxGeometry width="50" height="50" relative="1" as="geometry">
            <mxPoint x="4770" y="1970" as="sourcePoint" />
            <mxPoint x="4770" y="90" as="targetPoint" />
          </mxGeometry>
        </mxCell>
        <mxCell id="huYz3TOGwqJcKyMOCopR-31" value="" style="endArrow=none;html=1;rounded=0;" edge="1" parent="1">
          <mxGeometry width="50" height="50" relative="1" as="geometry">
            <mxPoint x="4930" y="1970" as="sourcePoint" />
            <mxPoint x="4930" y="90" as="targetPoint" />
          </mxGeometry>
        </mxCell>
        <mxCell id="huYz3TOGwqJcKyMOCopR-32" value="" style="endArrow=none;html=1;rounded=0;" edge="1" parent="1">
          <mxGeometry width="50" height="50" relative="1" as="geometry">
            <mxPoint x="5110" y="1960" as="sourcePoint" />
            <mxPoint x="5110" y="80" as="targetPoint" />
          </mxGeometry>
        </mxCell>
        <mxCell id="huYz3TOGwqJcKyMOCopR-33" value="" style="endArrow=none;html=1;rounded=0;" edge="1" parent="1">
          <mxGeometry width="50" height="50" relative="1" as="geometry">
            <mxPoint x="5270" y="1970" as="sourcePoint" />
            <mxPoint x="5270" y="90" as="targetPoint" />
          </mxGeometry>
        </mxCell>
        <mxCell id="huYz3TOGwqJcKyMOCopR-34" value="" style="endArrow=none;html=1;rounded=0;" edge="1" parent="1">
          <mxGeometry width="50" height="50" relative="1" as="geometry">
            <mxPoint x="5430" y="1970" as="sourcePoint" />
            <mxPoint x="5430" y="90" as="targetPoint" />
          </mxGeometry>
        </mxCell>
        <mxCell id="huYz3TOGwqJcKyMOCopR-35" value="" style="endArrow=none;html=1;rounded=0;" edge="1" parent="1">
          <mxGeometry width="50" height="50" relative="1" as="geometry">
            <mxPoint x="5590" y="1960" as="sourcePoint" />
            <mxPoint x="5590" y="80" as="targetPoint" />
          </mxGeometry>
        </mxCell>
        <mxCell id="huYz3TOGwqJcKyMOCopR-36" value="" style="endArrow=none;html=1;rounded=0;" edge="1" parent="1">
          <mxGeometry width="50" height="50" relative="1" as="geometry">
            <mxPoint x="5750" y="1970" as="sourcePoint" />
            <mxPoint x="5750" y="90" as="targetPoint" />
          </mxGeometry>
        </mxCell>
        <mxCell id="huYz3TOGwqJcKyMOCopR-37" value="" style="endArrow=none;html=1;rounded=0;" edge="1" parent="1" source="huYz3TOGwqJcKyMOCopR-79">
          <mxGeometry width="50" height="50" relative="1" as="geometry">
            <mxPoint x="5910" y="1970" as="sourcePoint" />
            <mxPoint x="5910" y="90" as="targetPoint" />
          </mxGeometry>
        </mxCell>
        <mxCell id="huYz3TOGwqJcKyMOCopR-38" value="" style="rhombus;whiteSpace=wrap;html=1;" vertex="1" parent="1">
          <mxGeometry x="2481" y="1169" width="80" height="80" as="geometry" />
        </mxCell>
        <mxCell id="huYz3TOGwqJcKyMOCopR-39" value="T3&amp;amp;T4" style="text;html=1;align=center;verticalAlign=middle;resizable=0;points=[];autosize=1;strokeColor=none;fillColor=none;" vertex="1" parent="1">
          <mxGeometry x="2570" y="1200" width="60" height="30" as="geometry" />
        </mxCell>
        <mxCell id="huYz3TOGwqJcKyMOCopR-40" value="" style="rounded=0;whiteSpace=wrap;html=1;" vertex="1" parent="1">
          <mxGeometry x="2520" y="1270" width="1120" height="60" as="geometry" />
        </mxCell>
        <mxCell id="huYz3TOGwqJcKyMOCopR-41" value="" style="rhombus;whiteSpace=wrap;html=1;" vertex="1" parent="1">
          <mxGeometry x="3600" y="1350" width="80" height="80" as="geometry" />
        </mxCell>
        <mxCell id="huYz3TOGwqJcKyMOCopR-42" value="T3" style="text;html=1;align=center;verticalAlign=middle;resizable=0;points=[];autosize=1;strokeColor=none;fillColor=none;" vertex="1" parent="1">
          <mxGeometry x="3700" y="1378" width="40" height="30" as="geometry" />
        </mxCell>
        <mxCell id="huYz3TOGwqJcKyMOCopR-43" value="T7" style="text;html=1;align=center;verticalAlign=middle;resizable=0;points=[];autosize=1;strokeColor=none;fillColor=none;" vertex="1" parent="1">
          <mxGeometry x="3580" y="1465" width="40" height="30" as="geometry" />
        </mxCell>
        <mxCell id="huYz3TOGwqJcKyMOCopR-44" value="" style="rounded=0;whiteSpace=wrap;html=1;" vertex="1" parent="1">
          <mxGeometry x="3640" y="1450" width="650" height="60" as="geometry" />
        </mxCell>
        <mxCell id="huYz3TOGwqJcKyMOCopR-45" value="T8" style="text;html=1;align=center;verticalAlign=middle;resizable=0;points=[];autosize=1;strokeColor=none;fillColor=none;" vertex="1" parent="1">
          <mxGeometry x="4230" y="1618" width="40" height="30" as="geometry" />
        </mxCell>
        <mxCell id="huYz3TOGwqJcKyMOCopR-46" value="" style="rounded=0;whiteSpace=wrap;html=1;" vertex="1" parent="1">
          <mxGeometry x="4280" y="1603" width="1150" height="60" as="geometry" />
        </mxCell>
        <mxCell id="huYz3TOGwqJcKyMOCopR-48" value="" style="endArrow=none;html=1;rounded=0;" edge="1" parent="1" target="huYz3TOGwqJcKyMOCopR-47">
          <mxGeometry width="50" height="50" relative="1" as="geometry">
            <mxPoint x="4290" y="1970" as="sourcePoint" />
            <mxPoint x="4290" y="90" as="targetPoint" />
          </mxGeometry>
        </mxCell>
        <mxCell id="huYz3TOGwqJcKyMOCopR-47" value="" style="rhombus;whiteSpace=wrap;html=1;" vertex="1" parent="1">
          <mxGeometry x="4250" y="1523" width="80" height="80" as="geometry" />
        </mxCell>
        <mxCell id="huYz3TOGwqJcKyMOCopR-49" value="T7" style="text;html=1;align=center;verticalAlign=middle;resizable=0;points=[];autosize=1;strokeColor=none;fillColor=none;" vertex="1" parent="1">
          <mxGeometry x="4330" y="1548" width="40" height="30" as="geometry" />
        </mxCell>
        <mxCell id="huYz3TOGwqJcKyMOCopR-50" value="T9" style="text;html=1;align=center;verticalAlign=middle;resizable=0;points=[];autosize=1;strokeColor=none;fillColor=none;" vertex="1" parent="1">
          <mxGeometry x="5370" y="1780" width="40" height="30" as="geometry" />
        </mxCell>
        <mxCell id="huYz3TOGwqJcKyMOCopR-51" value="T6" style="text;html=1;align=center;verticalAlign=middle;resizable=0;points=[];autosize=1;strokeColor=none;fillColor=none;" vertex="1" parent="1">
          <mxGeometry x="5480" y="1699" width="40" height="30" as="geometry" />
        </mxCell>
        <mxCell id="huYz3TOGwqJcKyMOCopR-52" value="" style="rhombus;whiteSpace=wrap;html=1;" vertex="1" parent="1">
          <mxGeometry x="5390" y="1674" width="80" height="80" as="geometry" />
        </mxCell>
        <mxCell id="huYz3TOGwqJcKyMOCopR-53" value="" style="rounded=0;whiteSpace=wrap;html=1;" vertex="1" parent="1">
          <mxGeometry x="5430" y="1780" width="480" height="60" as="geometry" />
        </mxCell>
        <mxCell id="huYz3TOGwqJcKyMOCopR-54" value="" style="endArrow=none;html=1;rounded=0;" edge="1" parent="1">
          <mxGeometry width="50" height="50" relative="1" as="geometry">
            <mxPoint x="6070" y="4010" as="sourcePoint" />
            <mxPoint x="6080" y="90" as="targetPoint" />
          </mxGeometry>
        </mxCell>
        <mxCell id="huYz3TOGwqJcKyMOCopR-55" value="" style="endArrow=none;html=1;rounded=0;" edge="1" parent="1">
          <mxGeometry width="50" height="50" relative="1" as="geometry">
            <mxPoint x="6230" y="4010" as="sourcePoint" />
            <mxPoint x="6240" y="90" as="targetPoint" />
          </mxGeometry>
        </mxCell>
        <mxCell id="huYz3TOGwqJcKyMOCopR-56" value="" style="endArrow=none;html=1;rounded=0;" edge="1" parent="1">
          <mxGeometry width="50" height="50" relative="1" as="geometry">
            <mxPoint x="6390" y="4020" as="sourcePoint" />
            <mxPoint x="6400" y="100" as="targetPoint" />
          </mxGeometry>
        </mxCell>
        <mxCell id="huYz3TOGwqJcKyMOCopR-57" value="" style="endArrow=none;html=1;rounded=0;" edge="1" parent="1">
          <mxGeometry width="50" height="50" relative="1" as="geometry">
            <mxPoint x="6560" y="4020" as="sourcePoint" />
            <mxPoint x="6570" y="100" as="targetPoint" />
          </mxGeometry>
        </mxCell>
        <mxCell id="huYz3TOGwqJcKyMOCopR-58" value="" style="endArrow=none;html=1;rounded=0;" edge="1" parent="1">
          <mxGeometry width="50" height="50" relative="1" as="geometry">
            <mxPoint x="6720" y="4020" as="sourcePoint" />
            <mxPoint x="6730" y="100" as="targetPoint" />
          </mxGeometry>
        </mxCell>
        <mxCell id="huYz3TOGwqJcKyMOCopR-59" value="" style="endArrow=none;html=1;rounded=0;" edge="1" parent="1">
          <mxGeometry width="50" height="50" relative="1" as="geometry">
            <mxPoint x="6860" y="4020" as="sourcePoint" />
            <mxPoint x="6870" y="100" as="targetPoint" />
          </mxGeometry>
        </mxCell>
        <mxCell id="huYz3TOGwqJcKyMOCopR-60" value="" style="endArrow=none;html=1;rounded=0;" edge="1" parent="1">
          <mxGeometry width="50" height="50" relative="1" as="geometry">
            <mxPoint x="7020" y="4020" as="sourcePoint" />
            <mxPoint x="7030" y="100" as="targetPoint" />
          </mxGeometry>
        </mxCell>
        <mxCell id="huYz3TOGwqJcKyMOCopR-61" value="" style="endArrow=none;html=1;rounded=0;" edge="1" parent="1">
          <mxGeometry width="50" height="50" relative="1" as="geometry">
            <mxPoint x="7180" y="4030" as="sourcePoint" />
            <mxPoint x="7190" y="110" as="targetPoint" />
          </mxGeometry>
        </mxCell>
        <mxCell id="huYz3TOGwqJcKyMOCopR-62" value="" style="endArrow=none;html=1;rounded=0;" edge="1" parent="1">
          <mxGeometry width="50" height="50" relative="1" as="geometry">
            <mxPoint x="7350" y="4030" as="sourcePoint" />
            <mxPoint x="7360" y="110" as="targetPoint" />
          </mxGeometry>
        </mxCell>
        <mxCell id="huYz3TOGwqJcKyMOCopR-63" value="" style="endArrow=none;html=1;rounded=0;" edge="1" parent="1">
          <mxGeometry width="50" height="50" relative="1" as="geometry">
            <mxPoint x="7510" y="4030" as="sourcePoint" />
            <mxPoint x="7520" y="110" as="targetPoint" />
          </mxGeometry>
        </mxCell>
        <mxCell id="huYz3TOGwqJcKyMOCopR-64" value="" style="endArrow=none;html=1;rounded=0;" edge="1" parent="1">
          <mxGeometry width="50" height="50" relative="1" as="geometry">
            <mxPoint x="7680" y="4030" as="sourcePoint" />
            <mxPoint x="7690" y="110" as="targetPoint" />
          </mxGeometry>
        </mxCell>
        <mxCell id="huYz3TOGwqJcKyMOCopR-65" value="" style="endArrow=none;html=1;rounded=0;" edge="1" parent="1">
          <mxGeometry width="50" height="50" relative="1" as="geometry">
            <mxPoint x="7840" y="4030" as="sourcePoint" />
            <mxPoint x="7850" y="110" as="targetPoint" />
          </mxGeometry>
        </mxCell>
        <mxCell id="huYz3TOGwqJcKyMOCopR-66" value="" style="endArrow=none;html=1;rounded=0;" edge="1" parent="1">
          <mxGeometry width="50" height="50" relative="1" as="geometry">
            <mxPoint x="8000" y="4040" as="sourcePoint" />
            <mxPoint x="8010" y="120" as="targetPoint" />
          </mxGeometry>
        </mxCell>
        <mxCell id="huYz3TOGwqJcKyMOCopR-67" value="" style="endArrow=none;html=1;rounded=0;" edge="1" parent="1">
          <mxGeometry width="50" height="50" relative="1" as="geometry">
            <mxPoint x="8170" y="4040" as="sourcePoint" />
            <mxPoint x="8180" y="120" as="targetPoint" />
          </mxGeometry>
        </mxCell>
        <mxCell id="huYz3TOGwqJcKyMOCopR-68" value="" style="endArrow=none;html=1;rounded=0;" edge="1" parent="1">
          <mxGeometry width="50" height="50" relative="1" as="geometry">
            <mxPoint x="8330" y="4040" as="sourcePoint" />
            <mxPoint x="8340" y="120" as="targetPoint" />
          </mxGeometry>
        </mxCell>
        <mxCell id="huYz3TOGwqJcKyMOCopR-80" value="" style="endArrow=none;html=1;rounded=0;" edge="1" parent="1" target="huYz3TOGwqJcKyMOCopR-79">
          <mxGeometry width="50" height="50" relative="1" as="geometry">
            <mxPoint x="5910" y="2130" as="sourcePoint" />
            <mxPoint x="5910" y="90" as="targetPoint" />
          </mxGeometry>
        </mxCell>
        <mxCell id="huYz3TOGwqJcKyMOCopR-79" value="" style="rhombus;whiteSpace=wrap;html=1;" vertex="1" parent="1">
          <mxGeometry x="5870" y="1850" width="80" height="80" as="geometry" />
        </mxCell>
        <mxCell id="huYz3TOGwqJcKyMOCopR-81" value="T5&amp;amp;T9" style="text;html=1;align=center;verticalAlign=middle;resizable=0;points=[];autosize=1;strokeColor=none;fillColor=none;" vertex="1" parent="1">
          <mxGeometry x="5960" y="1888" width="60" height="30" as="geometry" />
        </mxCell>
        <mxCell id="huYz3TOGwqJcKyMOCopR-82" value="T10" style="text;html=1;align=center;verticalAlign=middle;resizable=0;points=[];autosize=1;strokeColor=none;fillColor=none;" vertex="1" parent="1">
          <mxGeometry x="5850" y="1958" width="40" height="30" as="geometry" />
        </mxCell>
        <mxCell id="huYz3TOGwqJcKyMOCopR-85" value="" style="rounded=0;whiteSpace=wrap;html=1;" vertex="1" parent="1">
          <mxGeometry x="5910" y="1943" width="170" height="60" as="geometry" />
        </mxCell>
        <mxCell id="huYz3TOGwqJcKyMOCopR-86" value="" style="rhombus;whiteSpace=wrap;html=1;" vertex="1" parent="1">
          <mxGeometry x="6040" y="2010" width="80" height="80" as="geometry" />
        </mxCell>
        <mxCell id="huYz3TOGwqJcKyMOCopR-88" value="T9" style="text;html=1;align=center;verticalAlign=middle;resizable=0;points=[];autosize=1;strokeColor=none;fillColor=none;" vertex="1" parent="1">
          <mxGeometry x="6130" y="2028" width="40" height="30" as="geometry" />
        </mxCell>
        <mxCell id="huYz3TOGwqJcKyMOCopR-89" value="T11" style="text;html=1;align=center;verticalAlign=middle;resizable=0;points=[];autosize=1;strokeColor=none;fillColor=none;" vertex="1" parent="1">
          <mxGeometry x="6010" y="2128" width="40" height="30" as="geometry" />
        </mxCell>
        <mxCell id="huYz3TOGwqJcKyMOCopR-90" value="" style="rounded=0;whiteSpace=wrap;html=1;" vertex="1" parent="1">
          <mxGeometry x="6070" y="2113" width="330" height="60" as="geometry" />
        </mxCell>
        <mxCell id="huYz3TOGwqJcKyMOCopR-91" value="" style="rhombus;whiteSpace=wrap;html=1;" vertex="1" parent="1">
          <mxGeometry x="6350" y="2180" width="80" height="80" as="geometry" />
        </mxCell>
        <mxCell id="huYz3TOGwqJcKyMOCopR-92" value="T10" style="text;html=1;align=center;verticalAlign=middle;resizable=0;points=[];autosize=1;strokeColor=none;fillColor=none;" vertex="1" parent="1">
          <mxGeometry x="6430" y="2208" width="40" height="30" as="geometry" />
        </mxCell>
        <mxCell id="huYz3TOGwqJcKyMOCopR-93" value="T12" style="text;html=1;align=center;verticalAlign=middle;resizable=0;points=[];autosize=1;strokeColor=none;fillColor=none;" vertex="1" parent="1">
          <mxGeometry x="6320" y="2278" width="40" height="30" as="geometry" />
        </mxCell>
        <mxCell id="huYz3TOGwqJcKyMOCopR-94" value="" style="rounded=0;whiteSpace=wrap;html=1;" vertex="1" parent="1">
          <mxGeometry x="6390" y="2290" width="640" height="60" as="geometry" />
        </mxCell>
        <mxCell id="huYz3TOGwqJcKyMOCopR-95" value="" style="rhombus;whiteSpace=wrap;html=1;" vertex="1" parent="1">
          <mxGeometry x="6990" y="2370" width="80" height="80" as="geometry" />
        </mxCell>
        <mxCell id="huYz3TOGwqJcKyMOCopR-97" value="T14" style="text;html=1;align=center;verticalAlign=middle;resizable=0;points=[];autosize=1;strokeColor=none;fillColor=none;" vertex="1" parent="1">
          <mxGeometry x="6960" y="2490" width="40" height="30" as="geometry" />
        </mxCell>
        <mxCell id="huYz3TOGwqJcKyMOCopR-98" value="T8&amp;amp;T9" style="text;html=1;align=center;verticalAlign=middle;resizable=0;points=[];autosize=1;strokeColor=none;fillColor=none;" vertex="1" parent="1">
          <mxGeometry x="7070" y="2395" width="60" height="30" as="geometry" />
        </mxCell>
        <mxCell id="huYz3TOGwqJcKyMOCopR-99" value="" style="rounded=0;whiteSpace=wrap;html=1;" vertex="1" parent="1">
          <mxGeometry x="7020" y="2490" width="340" height="60" as="geometry" />
        </mxCell>
        <mxCell id="huYz3TOGwqJcKyMOCopR-100" value="T2&amp;amp;T14" style="text;html=1;align=center;verticalAlign=middle;resizable=0;points=[];autosize=1;strokeColor=none;fillColor=none;" vertex="1" parent="1">
          <mxGeometry x="7390" y="2578" width="70" height="30" as="geometry" />
        </mxCell>
        <mxCell id="huYz3TOGwqJcKyMOCopR-101" value="" style="rhombus;whiteSpace=wrap;html=1;" vertex="1" parent="1">
          <mxGeometry x="7310" y="2550" width="80" height="80" as="geometry" />
        </mxCell>
        <mxCell id="huYz3TOGwqJcKyMOCopR-102" value="" style="rounded=0;whiteSpace=wrap;html=1;" vertex="1" parent="1">
          <mxGeometry x="7360" y="2650" width="640" height="60" as="geometry" />
        </mxCell>
        <mxCell id="huYz3TOGwqJcKyMOCopR-103" value="T15" style="text;html=1;align=center;verticalAlign=middle;resizable=0;points=[];autosize=1;strokeColor=none;fillColor=none;" vertex="1" parent="1">
          <mxGeometry x="7290" y="2648" width="40" height="30" as="geometry" />
        </mxCell>
        <mxCell id="huYz3TOGwqJcKyMOCopR-105" value="T15" style="text;html=1;align=center;verticalAlign=middle;resizable=0;points=[];autosize=1;strokeColor=none;fillColor=none;" vertex="1" parent="1">
          <mxGeometry x="8040" y="2765" width="40" height="30" as="geometry" />
        </mxCell>
        <mxCell id="huYz3TOGwqJcKyMOCopR-106" value="" style="rhombus;whiteSpace=wrap;html=1;" vertex="1" parent="1">
          <mxGeometry x="7960" y="2740" width="80" height="80" as="geometry" />
        </mxCell>
        <mxCell id="huYz3TOGwqJcKyMOCopR-107" value="" style="rounded=0;whiteSpace=wrap;html=1;" vertex="1" parent="1">
          <mxGeometry x="8000" y="2850" width="340" height="60" as="geometry" />
        </mxCell>
        <mxCell id="huYz3TOGwqJcKyMOCopR-108" value="T16" style="text;html=1;align=center;verticalAlign=middle;resizable=0;points=[];autosize=1;strokeColor=none;fillColor=none;" vertex="1" parent="1">
          <mxGeometry x="7940" y="2880" width="40" height="30" as="geometry" />
        </mxCell>
        <mxCell id="huYz3TOGwqJcKyMOCopR-109" value="" style="rhombus;whiteSpace=wrap;html=1;" vertex="1" parent="1">
          <mxGeometry x="8300" y="2980" width="80" height="80" as="geometry" />
        </mxCell>
        <mxCell id="huYz3TOGwqJcKyMOCopR-110" value="FIN" style="text;html=1;align=center;verticalAlign=middle;resizable=0;points=[];autosize=1;strokeColor=none;fillColor=none;" vertex="1" parent="1">
          <mxGeometry x="8400" y="3008" width="40" height="30" as="geometry" />
        </mxCell>
        <mxCell id="huYz3TOGwqJcKyMOCopR-111" value="&lt;font style=&quot;font-size: 72px;&quot;&gt;Supuestos:&lt;/font&gt;&lt;div&gt;&lt;font style=&quot;font-size: 72px;&quot;&gt;Cantidad de personal: 1&lt;/font&gt;&lt;/div&gt;&lt;div&gt;&lt;font style=&quot;font-size: 72px;&quot;&gt;Horas laborales por dia: 8&lt;/font&gt;&lt;/div&gt;&lt;div&gt;&lt;font style=&quot;font-size: 72px;&quot;&gt;Horas de duracion: 1 dia -&amp;gt; 8 hrs&lt;/font&gt;&lt;/div&gt;&lt;div style=&quot;&quot;&gt;&lt;font style=&quot;font-size: 72px;&quot;&gt;Dias laborales a la semana: 5&lt;/font&gt;&lt;/div&gt;" style="text;html=1;align=left;verticalAlign=middle;resizable=0;points=[];autosize=1;strokeColor=none;fillColor=none;" vertex="1" parent="1">
          <mxGeometry x="-705" y="1978" width="1070" height="450" as="geometry" />
        </mxCell>
      </root>
    </mxGraphModel>
  </diagram>
</mxfile>
